<?xml version="1.0" standalone="no"?>
<!DOCTYPE svg PUBLIC "-//W3C//DTD SVG 1.1//EN" "http://www.w3.org/Graphics/SVG/1.1/DTD/svg11.dtd" >
<!--
2013-9-30: Created.
-->
<svg>
<metadata>
Created by iconfont
</metadata>
<defs>

<font id="iconfont" horiz-adv-x="1024" >
  <font-face
    font-family="iconfont"
    font-weight="500"
    font-stretch="normal"
    units-per-em="1024"
    ascent="896"
    descent="-128"
  />
    <missing-glyph />
    
    <glyph glyph-name="sousuo" unicode="&#58912;" d="M951.398021 14.338763 745.308684 220.4281c49.322274 64.05756 78.895173 144.078345 78.895173 231.159788 0 209.773159-170.069751 379.84291-379.84291 379.84291-209.773159 0-379.84291-170.069751-379.84291-379.84291s170.069751-379.84291 379.84291-379.84291c87.081443 0 167.102228 29.675227 231.159788 78.895173l206.089337-206.089337c10.130509-10.130509 26.503048-10.130509 36.633557 0l33.052064 33.052064C961.52853-12.164285 961.52853 4.208254 951.398021 14.338763zM444.360947 149.207555c-166.795243 0-302.380334 135.687419-302.380334 302.380334s135.687419 302.380334 302.380334 302.380334S746.843609 618.383132 746.843609 451.690217 611.156191 149.207555 444.360947 149.207555z"  horiz-adv-x="1024" />

    
    <glyph glyph-name="101" unicode="&#58939;" d="M511.99693 28.834397c-195.837303 0-355.163556 159.327276-355.163556 355.167649 0 195.837303 159.325229 355.163556 355.163556 355.163556 195.840374 0 355.168673-159.325229 355.168673-355.163556C867.165603 188.162697 707.838327 28.834397 511.99693 28.834397zM511.99693 709.741245c-179.613126 0-325.738175-146.126072-325.738175-325.740221 0-179.616196 146.126072-325.744315 325.738175-325.744315 179.616196 0 325.744315 146.128119 325.744315 325.744315C837.741245 563.615173 691.613126 709.741245 511.99693 709.741245zM643.718339 236.03497c-3.910217 0-7.575854 1.519673-10.323546 4.280669L511.688902 362.41552 390.845694 242.894479c-2.752809-2.709829-6.402072-4.213128-10.256005-4.213128-3.924544 0-7.611671 1.541164-10.3829 4.339-5.639677 5.714382-5.58851 14.976715 0.127919 20.632766l120.74906 119.452476L371.309959 503.243713c-5.682658 5.696985-5.669354 14.954201 0.02763 20.635836 2.756903 2.757926 6.402072 4.270436 10.276472 4.270436 3.906124 0 7.587111-1.529907 10.365504-4.310347l119.856699-120.222035 121.652677 120.306973c2.747692 2.720062 6.388769 4.215175 10.258052 4.215175 3.930684 0 7.613718-1.53707 10.369597-4.328767 2.744622-2.778393 4.242806-6.455286 4.221315-10.354247-0.02149-3.893844-1.557537-7.542083-4.32672-10.274425L532.445493 382.932647l121.602533-122.001639c5.672424-5.700055 5.663214-14.961365-0.026607-20.636859C651.262469 237.551573 647.599902 236.03497 643.718339 236.03497z"  horiz-adv-x="1024" />

    
    <glyph glyph-name="chakantieziguanzhu" unicode="&#58978;" d="M971.264 226.304l-163.84 0 0 163.84c0 5.632-4.608 10.24-10.24 10.24l-40.96 0c-5.632 0-10.24-4.608-10.24-10.24l0-163.84-163.84 0c-5.632 0-10.24-4.608-10.24-10.24l0-40.96c0-5.632 4.608-10.24 10.24-10.24l163.84 0 0-163.84c0-5.632 4.608-10.24 10.24-10.24l40.96 0c5.632 0 10.24 4.608 10.24 10.24l0 163.84 163.84 0c5.632 0 10.24 4.608 10.24 10.24l0 40.96C981.504 221.696 976.896 226.304 971.264 226.304zM331.776 731.648c59.392 0 115.712-23.04 158.72-64.512l21.504-20.992 21.504 20.992c43.008 41.472 99.328 64.512 158.72 64.512 125.44 0 227.84-102.4 227.84-227.84 0-18.432-3.584-37.376-10.24-57.344 0 0-3.072-9.216-3.072-14.336 0-16.896 13.824-30.72 30.72-30.72 14.848 0 25.6 14.848 30.208 25.088 4.096 9.216 14.336 51.712 14.336 77.312 0 159.744-129.536 289.28-289.28 289.28-66.048 0-129.024-22.016-180.224-62.976l0 0c-51.2 40.96-114.176 62.976-180.224 62.976-159.744 0-289.28-129.536-289.28-289.28 0-203.776 333.312-440.32 434.688-507.392 0.512-0.512 1.536-1.024 1.536-1.024 0 0 10.24-4.608 15.872-4.608 16.896 0 30.72 13.824 30.72 30.72 0 10.752-5.632 20.48-14.336 25.6l0 0c-127.488 81.92-408.064 294.912-408.064 456.704C103.936 629.248 206.336 731.648 331.776 731.648z"  horiz-adv-x="1024" />

    
    <glyph glyph-name="shouye" unicode="&#59411;" d="M803.140626 383.487304 803.140626-49.02539 819.140626-33.02539 609.105469-33.02539 625.105469-49.02539 625.105469 190.875C625.105469 199.711555 617.942024 206.875 609.105469 206.875L416.402344 206.875C407.565787 206.875 400.402344 199.711555 400.402344 190.875L400.402344-49.02539 416.402344-33.02539 208.812499-33.02539 224.812499-49.02539 224.812499 480C224.812499 488.836555 217.649056 496 208.812499 496L80 496 89.82305 467.370365 521.82305 803.370364 502.17695 803.370364 934.17695 467.370365C941.152106 461.945243 951.204515 463.201795 956.629635 470.17695 962.054757 477.152106 960.798205 487.204515 953.82305 492.629635L521.82305 828.629636C516.045282 833.123455 507.954718 833.123455 502.17695 828.629636L70.17695 492.629635C58.151577 483.276568 64.765516 464 80 464L208.812499 464 192.812499 480 192.812499-49.02539C192.812499-57.861947 199.975944-65.02539 208.812499-65.02539L416.402344-65.02539C425.238899-65.02539 432.402344-57.861947 432.402344-49.02539L432.402344 190.875 416.402344 174.875 609.105469 174.875 593.105469 190.875 593.105469-49.02539C593.105469-57.861947 600.268912-65.02539 609.105469-65.02539L819.140626-65.02539C827.977181-65.02539 835.140626-57.861947 835.140626-49.02539L835.140626 383.487304C835.140626 392.323861 827.977181 399.487304 819.140626 399.487304 810.304069 399.487304 803.140626 392.323861 803.140626 383.487304L803.140626 383.487304Z"  horiz-adv-x="1024" />

    
    <glyph glyph-name="yuanquan" unicode="&#58942;" d="M541.300695 760.505458C339.752564 760.505458 176.481641 597.234535 176.481641 395.686404c0-201.548131 163.270923-364.819054 364.819054-364.819054 201.548131 0 364.819054 163.270923 364.819054 364.819054C906.119749 597.234535 742.848826 760.505458 541.300695 760.505458zM541.300695 49.159113c-191.38604 0-346.527291 155.14125-346.527291 346.527291 0 191.38604 155.14125 346.527291 346.527291 346.527291 191.38604 0 346.527291-155.14125 346.527291-346.527291C887.827985 204.300364 732.686735 49.159113 541.300695 49.159113z"  horiz-adv-x="1064" />

    
    <glyph glyph-name="yuanquan1" unicode="&#58892;" d="M512.096-59.259c-245.943 0-445.317 199.573-445.317 445.759 0 246.184 199.374 445.754 445.317 445.754 245.94 0 445.317-199.571 445.317-445.754 0-246.185-199.377-445.759-445.317-445.759z m0 839.075c-217.008 0-392.926-176.095-392.926-393.315 0-217.223 175.918-393.318 392.926-393.318s392.926 176.095 392.926 393.318c0 217.22-175.918 393.315-392.926 393.315z"  horiz-adv-x="1024" />

    
    <glyph glyph-name="QQ" unicode="&#58916;" d="M868.9 348l-2.8 4.4c-11.8 18.8-25 39.8-37.4 57.7 5.7 12.4 6.5 26.8 6.5 38.3 0 29.5-7.2 48.4-23.9 62.3 0.3 6.9 0.2 14.1 0.2 21.5v7.7c0 161.6-134.1 293.1-299 293.1-166.6 0-297.2-128.8-297.2-293.1 0-10.2 0.7-20.7 2-31.9-18.1-16-27.5-36.6-27.5-59.6 0-11.1 3.3-24 10-39.4-15.4-17.2-32.2-37.9-44.8-63.1-34-67.9-34.1-143.6-17-180.2 9.6-20.6 23.2-27.7 32.9-30 23.8-5.7 45.5 8.8 68.2 34.1 8-22 19.5-43.4 33.7-62.9-54-23.9-81.7-57.4-76.4-93 6.9-46.4 64.5-77.7 143.6-77.7 11.1 0 22.5 0.6 34 1.9 50.5 5.5 94.5 25.1 121.6 54.1 11.1-2.5 24.1-2.7 34.7-0.2 26.7-27.4 64.9-45.9 110.8-53.7 12.7-2.2 25.7-3.3 38.8-3.3 75.4 0 136.8 35.5 142.7 82.7 4.4 34.7-20.9 66-71.4 89 12.6 18 23.6 38.5 32 59.5 16.3-19.8 38.1-36.8 69.7-30.8 9.7 1.8 23.2 8.4 32.6 30 19 43.4 16 130.7-16.6 182.6z m-119-122.7c-5.4-38-28.3-84.2-55.7-112.4l-26.9-27.8 36.7-11.9c48.5-15.7 72.3-36.8 70.6-49.5-2.1-16.5-40.1-40.5-94.9-40.5-10.3 0-20.6 0.9-30.6 2.6-41.1 7-74 24.6-92.7 49.4l-13 17.3-18.4-11.1c-2.9-1.8-6.6-2.6-10.9-2.6-6.8 0-13 2.2-14.7 3.1l-4.2 2-20 1.7-7.6-11.5c-16.7-25.2-53.6-43.1-98.7-48-9.2-1-18.5-1.5-27.7-1.5-56.6 0-94.4 18.9-97 36.5-1.8 11.9 23.7 36.7 76.2 52.3l38.1 11.6-27.8 29c-29.5 30-51.2 74.1-55.5 112.3l-6.1 57.5-45.5-50.8c-20.6-25.4-36.9-36.9-43.4-37-9.9 26.1-7.1 78.6 17.8 128.4 13 26 32.5 47.1 48.2 64l11.5 12.4-7.8 15c-10.4 20.1-12 29-12 32.5 0 11.5 5.8 20.7 18.3 28.8l13.1 8.5-2.4 15.5c-2.2 14.3-3.3 27-3.3 38.8 0 137.3 109.4 244.9 249 244.9 138.3 0 250.9-109.9 250.9-245v-8.1c0.1-9.5 0.2-21.3-1-29.7l-2.3-16.2 14.2-8.1c8.7-5 12.7-7.2 12.7-29.3 0-12.2-1.6-17.3-1.2-17.4l-22.2-14 15.8-20.9c13.8-18.3 30.8-45.5 45.8-69.4l2.8-4.4c29.6-47.1 21.4-126.3 13.5-139.9-12.7-0.4-25.2 18.8-39 39.8l-43.8 64.6-8.9-61.5z"  horiz-adv-x="1024" />

    
    <glyph glyph-name="dianpu" unicode="&#59020;" d="M925.51168 238.7712a24.02816 24.02816 0 0 1-24.02304-24.01792v-240.2304a24.0128 24.0128 0 0 0-24.01792-24.00256H156.82048a24.0128 24.0128 0 0 0-24.01792 24.00256v240.2304c0 13.2608-10.76224 24.01792-24.02304 24.01792s-24.01792-10.77248-24.01792-24.01792v-240.2304c0-39.72096 32.3328-72.05376 72.064-72.05376h720.64c39.73632 0 72.06912 32.3328 72.06912 72.05376v240.2304a24.04864 24.04864 0 0 1-24.02304 24.01792z m71.808 362.11712c-0.31232 9.94304-2.74944 19.74272-7.29088 29.1584l0.16896 0.19456s-113.80736 194.4064-114.62656 195.9424c-10.5216 20.25472-21.83168 37.14048-70.93248 37.14048H229.5808c-40.33536 0-58.58816-16.64512-73.60512-41.68192L45.96224 633.76896l-0.16896-0.48128v-0.384c-5.52448-10.33216-8.50432-21.12-8.9344-32.28672-0.07168-0.24064-0.16896-0.55296-0.16896-0.93696v-167.90528c0-79.9488 61.952-144.96256 138.12224-144.96256 45.76256 0 88.27904 23.6288 114.10432 63.36 25.82016-39.70048 68.33664-63.36 114.0992-63.36s88.27904 23.6288 114.10944 63.36c25.82016-39.70048 68.34688-63.36 114.08896-63.36 45.76256 0 88.27392 23.6288 114.10944 63.36 25.82016-39.70048 68.34176-63.36 114.09408-63.36 76.18048 0 138.12736 65.01376 138.12736 144.96256V599.68512c0.0256 0.384-0.0768 0.7168-0.22528 1.2032zM199.14752 795.74528c7.47008 12.27776 16.28672 17.27488 30.45888 17.27488h575.07328c14.58176 0 20.992-1.48992 30.44864-17.24928 17.3824-28.91776 66.54976-110.88384 74.50112-124.13952H124.67712c7.92576 13.28128 57.02656 95.48288 74.4704 124.11392z m750.38208-363.96544c0-52.16768-40.41216-94.63808-90.08128-94.63808-49.6896 0-90.08128 42.49088-90.08128 94.63808v23.94624c0 13.88544-10.77248 25.17504-24.00256 25.17504-13.2608 0-24.0128-11.2896-24.0128-25.17504v-23.94624c0-52.16768-40.42752-94.63808-90.0864-94.63808-49.67936 0-90.08128 42.49088-90.08128 94.63808v23.94624c0 13.88544-10.76736 25.17504-24.02816 25.17504-13.25568 0-24.01792-11.2896-24.01792-25.17504v-23.94624c0-52.16768-40.40704-94.63808-90.08128-94.63808-49.67424 0-90.08128 42.49088-90.08128 94.63808v23.94624c0 13.88544-10.76224 25.17504-24.01792 25.17504-13.2352 0-23.99744-11.2896-23.99744-25.17504v-23.94624c0-52.16768-40.42752-94.63808-90.08128-94.63808-49.67936 0-90.08128 42.49088-90.08128 94.63808V599.3728c0.48128 12.32384 10.40384 21.95456 22.5792 21.95456h819.6096c12.21632 0 22.12864-9.63072 22.5792-21.90848v-167.64416l-0.03584 0.00512z"  horiz-adv-x="1024" />

    
    <glyph glyph-name="yanjing" unicode="&#58897;" d="M999.424 558.592c10.752 15.872 7.168 37.376-7.168 50.176-15.872 12.288-36.864 8.704-49.664-7.168-1.536-1.536-197.632-235.52-430.592-235.52-225.792 0-430.592 235.52-432.64 237.568-12.288 14.336-35.328 15.872-49.664 3.584-14.336-12.288-15.872-35.84-3.584-50.176 3.584-5.12 46.08-53.76 113.152-107.008L49.664 355.328c-14.336-14.336-12.288-37.376 1.536-50.176 3.584-7.168 12.288-10.752 20.992-10.752 8.704 0 17.408 3.584 24.576 10.752l97.28 101.888c46.08-32.256 100.352-62.464 160.768-83.968l-36.864-126.976c-5.12-19.456 5.12-39.424 24.576-44.544H353.28c15.872 0 30.208 10.752 33.28 26.624l36.864 126.976c28.16-5.12 58.368-8.704 88.064-8.704s59.904 3.584 88.064 8.704l36.864-124.928c3.584-15.872 19.456-26.624 33.28-26.624 3.584 0 7.168 0 8.704 1.536 19.456 5.12 30.208 25.088 24.576 44.544l-36.864 124.928c59.904 21.504 114.688 51.712 160.768 83.968l95.232-99.84c7.168-7.168 15.872-10.752 24.576-10.752s17.408 3.584 24.576 10.752c14.336 14.336 14.336 35.84 1.536 50.176l-90.112 94.72c74.24 53.248 116.736 104.96 116.736 104.96z"  horiz-adv-x="1024" />

    
    <glyph glyph-name="faxian" unicode="&#58893;" d="M512 819.2c-243.2 0-441.6-198.4-441.6-441.6C70.4 134.4 268.8-64 512-64s441.6 198.4 441.6 441.6S755.2 819.2 512 819.2z m0-844.8c-224 0-403.2 179.2-403.2 403.2S288 780.8 512 780.8s403.2-179.2 403.2-403.2-179.2-403.2-403.2-403.2zM691.2 582.4L422.4 467.2s-115.2-256-121.6-275.2 6.4-32 25.6-25.6 275.2 121.6 275.2 121.6 108.8 256 115.2 268.8c6.4 19.2-6.4 32-25.6 25.6zM569.6 320l-211.2-96 96 211.2 211.2 96L569.6 320z"  horiz-adv-x="1024" />

    
    <glyph glyph-name="wode" unicode="&#58924;" d="M927.744-70.656H135.168c-16.384 0-32.768 8.192-43.008 20.48-10.24 14.336-14.336 30.72-10.24 47.104 40.96 208.896 210.944 364.544 415.744 380.928 8.192 2.048 14.336 2.048 24.576 2.048v-20.48c-8.192 0-14.336 0-22.528-2.048-196.608-14.336-360.448-163.84-399.36-364.544-2.048-10.24 0-22.528 8.192-30.72 6.144-8.192 16.384-12.288 26.624-12.288h792.576c10.24 0 20.48 4.096 26.624 12.288 6.144 8.192 10.24 18.432 8.192 30.72-24.576 131.072-104.448 243.712-217.088 307.2-12.288 8.192-26.624 14.336-38.912 20.48l8.192 18.432c14.336-6.144 28.672-14.336 40.96-20.48 118.784-67.584 200.704-184.32 227.328-321.536 4.096-16.384 0-32.768-12.288-47.104-10.24-12.288-26.624-20.48-43.008-20.48z m-399.36 430.08h-4.096v20.48h6.144l-2.048-20.48zM536.576 359.424c-129.024 0-235.52 106.496-235.52 235.52s106.496 235.52 235.52 235.52 235.52-106.496 235.52-235.52-106.496-235.52-235.52-235.52z m0 450.56c-118.784 0-215.04-96.256-215.04-215.04s96.256-215.04 215.04-215.04 215.04 96.256 215.04 215.04-96.256 215.04-215.04 215.04z"  horiz-adv-x="1024" />

    
    <glyph glyph-name="yanjing1" unicode="&#59067;" d="M511.103584 118.909459c-179.796946 0-350.028025 133.709281-427.777807 265.270643 77.749782 132.12418 247.980861 265.270643 427.777807 265.270642S861.131609 516.303258 938.88139 384.180102c-77.749782-131.561361-247.980861-265.270643-427.777806-265.270643z m501.537717 283.633873C928.293241 562.953741 729.314421 724.949252 511.103584 724.949252S93.913926 562.953741 10.077519 402.543332l-10.076496-18.36323 10.076496-18.312065c83.836407-159.898757 282.866393-322.405921 501.026065-322.40592 218.210837 0 417.189657 162.507164 501.537717 322.40592l9.616009 18.312065-9.616009 18.36323z m-351.510795 78.107938c0-34.066887-25.780153-61.330834-58.10742-61.330833-32.327266 0-58.619072 27.263947-58.619072 61.330833 0 33.555234 26.291806 60.819181 58.619072 60.819181 4.041036 0 7.570419-1.586125 11.611456-2.096754C585.376171 560.856987 549.468356 573.952236 511.104607 573.952236c-100.000552 0-180.819229-84.910878-180.819228-189.771111 0-104.297414 80.767512-189.259458 180.819228-189.259458 100.000552 0 180.819229 84.962044 180.819229 189.259458a193.323007 193.323007 0 0 1-33.350573 108.543112c1.022283-4.195555 2.557242-7.878434 2.557243-12.072967z"  horiz-adv-x="1026" />

    
    <glyph glyph-name="type-selected" unicode="&#58880;" d="M364.82804528 354.53870377L247.11738681 354.53870377c-64.72217794 0-117.71065849-52.98848054-117.7106585-117.71065849l0-117.71065847c0-64.72217794 52.98848054-117.71065849 117.7106585-117.7106585l117.71065847 0c64.72217794 0 117.71065849 52.98848054 117.71065849 117.71065848L482.53870377 236.82804527999997C482.53870377 301.55022321 429.55022321 354.53870377 364.82804528 354.53870377zM423.72074297 119.11738680999997c0-32.36108897-26.45687181-58.89269771-58.89269769-58.89269771L247.11738681 60.22468909999998c-32.36108897 0-58.89269771 26.45687181-58.89269771 58.89269769L188.2246891 236.82804527999997c0 32.36108897 26.45687181 58.89269771 58.89269769 58.8926977l117.71065849 0c32.36108897 0 58.89269771-26.45687181 58.8926977-58.8926977L423.72074297 119.11738680999997zM776.92745535 766.63811385L659.14205995 766.63811385c-64.72217794 0-117.71065849-52.98848054-117.71065848-117.71065849l0-117.71065849c0-64.72217794 52.98848054-117.71065849 117.71065848-117.71065848l117.71065847 0c64.72217794 0 117.71065849 52.98848054 117.71065848 117.71065848L894.56337691 648.92745535C894.63811385 713.64963329 841.64963329 766.63811385 776.92745535 766.63811385zM835.82015307 531.14205995c0-32.36108897-26.45687181-58.89269771-58.89269771-58.8926977L659.14205995 472.24936225c-32.36108897 0-58.89269771 26.45687181-58.8926977 58.8926977L600.24936225 648.92745535c0 32.36108897 26.45687181 58.89269771 58.8926977 58.89269772l117.71065848 0c32.36108897 0 58.89269771-26.45687181 58.8926977-58.89269771L835.74541614 531.14205995zM776.92745535 354.53870377L659.14205995 354.53870377c-64.72217794 0-117.71065849-52.98848054-117.71065848-117.71065849l0-117.71065847c0-64.72217794 52.98848054-117.71065849 117.71065848-117.7106585l117.71065847 0c64.72217794 0 117.71065849 52.98848054 117.71065848 117.71065848L894.56337691 236.82804527999997C894.63811385 301.55022321 841.64963329 354.53870377 776.92745535 354.53870377zM835.82015307 119.11738680999997c0-32.36108897-26.45687181-58.89269771-58.89269771-58.89269771L659.14205995 60.22468909999998c-32.36108897 0-58.89269771 26.45687181-58.8926977 58.89269769L600.24936225 236.82804527999997c0 32.36108897 26.45687181 58.89269771 58.8926977 58.8926977l117.71065848 0c32.36108897 0 58.89269771-26.45687181 58.8926977-58.8926977L835.74541614 119.11738680999997zM364.82804528 766.63811385L247.11738681 766.63811385c-64.72217794 0-117.71065849-52.98848054-117.7106585-117.71065849l0-117.71065849c0-64.72217794 52.98848054-117.71065849 117.7106585-117.71065848l117.71065847 0c64.72217794 0 117.71065849 52.98848054 117.71065849 117.71065848L482.53870377 648.92745535C482.53870377 713.64963329 429.55022321 766.63811385 364.82804528 766.63811385zM423.72074297 531.14205995c0-32.36108897-26.45687181-58.89269771-58.89269769-58.8926977L247.11738681 472.24936225c-32.36108897 0-58.89269771 26.45687181-58.89269771 58.8926977L188.2246891 648.92745535c0 32.36108897 26.45687181 58.89269771 58.89269769 58.89269772l117.71065849 0c32.36108897 0 58.89269771-26.45687181 58.8926977-58.89269771L423.72074297 531.14205995z"  horiz-adv-x="1024" />

    
    <glyph glyph-name="xuanzhong" unicode="&#59915;" d="M523.2 798.2c-220.9 0-400-179.1-400-400s179.1-400 400-400 400 179.1 400 400-179.1 400-400 400z m0-750c-193.3 0-350 156.7-350 350s156.7 350 350 350 350-156.7 350-350-156.7-350-350-350zM673.9 571.5c-12 6.9-27.2 2.8-34.1-9.1l-160-277-89.5 82.5c-9.4 10.1-25.2 10.6-35.3 1.2-10.1-9.4-10.6-25.3-1.1-35.3l114.3-105.4c9.4-10.1 25.3-10.6 35.3-1.1 3 2.8 179.5 310.2 179.5 310.2 6.9 11.8 2.8 27.1-9.1 34z"  horiz-adv-x="1024" />

    
    <glyph glyph-name="tiaozhuanqianwangyoujiantouxiangyouxiayibuxianxing-copy-copy" unicode="&#58881;" d="M512.739556 549.319111L122.510222 159.061333a28.444444 28.444444 0 0 0-40.220444 40.248889l410.339555 410.339556a28.444444 28.444444 0 0 0 40.220445 0L943.217778 199.31022199999995a28.444444 28.444444 0 0 0-40.220445-40.22044399l-390.229333 390.22933299z"  horiz-adv-x="1024" />

    
    <glyph glyph-name="xuanzhong1" unicode="&#59319;" d="M508.5 787.5c-219.4 0-397.3-177.9-397.3-397.3s177.9-397.3 397.3-397.3 397.3 177.9 397.3 397.3-177.9 397.3-397.3 397.3z m196.8-343.2L501 240c-1.8-1.8-3.8-3.4-5.8-4.7-1.3-2.1-2.9-4-4.7-5.8-14.1-14.1-37-14.1-51.1 0L311.6 357.1c-14.1 14.1-14.1 37 0 51.1 14.1 14.1 37 14.1 51.1 0L464.9 306l189.4 189.4c14.1 14.1 37 14.1 51.1 0 14.1-14.1 14.1-37-0.1-51.1z"  horiz-adv-x="1024" />

    
    <glyph glyph-name="fenxiang" unicode="&#58883;" d="M972.80005 346.086v-294.758a128.077 128.077 0 0 0-128-128.128H179.20005a128 128 0 0 0-128 128V716.8c0 70.733 57.19 128 127.872 128h202.317a25.6 25.6 0 0 1 0 51.2H179.07205A179.072 179.072 0 0 1 0.00005 716.8v-665.6A179.2 179.2 0 0 1 179.20005-128h665.6c98.944 0 179.2 80.282 179.2 179.328V346.086a25.6 25.6 0 0 1-51.2 0zM960.00005 768c-353.46 0-640-286.54-640-640a25.6 25.6 0 0 1 51.2 0c0 325.197 263.603 588.8 588.8 588.8a25.6 25.6 0 0 1 0 51.2zM720.10205 833.843l256-102.4a25.6 25.6 0 0 1 18.996 47.514l-256 102.4a25.6 25.6 0 0 1-18.996-47.514zM808.80605 547.533l194.637 189.312a25.6 25.6 0 1 1-35.686 36.71L773.12005 584.243a25.6 25.6 0 1 1 35.686-36.71z"  horiz-adv-x="1024" />

    
    <glyph glyph-name="right" unicode="&#59197;" d="M511.260444 218.68088899999998L901.489778 608.938667a28.444444 28.444444 0 0 0 40.220444-40.248889l-410.339555-410.339556a28.444444 28.444444 0 0 0-40.220445 0L80.782222 568.6897779999999a28.444444 28.444444 0 0 0 40.220445 40.22044399l390.229333-390.22933299z"  horiz-adv-x="1024" />

    
    <glyph glyph-name="weixin" unicode="&#58882;" d="M512 675.19262695c-191.32690427 0-346.06933593-129.03442383-346.06933593-288.22631837a263.5070801 263.5070801 0 0 1 90.4724121-193.79882812l-32.62939454-101.34887695a34.11254883 34.11254883 0 0 1 34.11254887-34.6069336 39.55078124 39.55078124 0 0 1 12.85400387 0l133.48388673 53.39355472a402.42919921 402.42919921 0 0 1 107.7758789-11.86523439c191.32690427 0 346.06933593 129.03442383 346.06933593 288.22631834s-154.74243164 288.22631837-346.06933593 288.22631837z m0-527.01416016a362.38403318 362.38403318 0 0 0-94.92187501 12.35961915 38.56201172 38.56201172 0 0 1-12.85400389 0 44.49462894 44.49462894 0 0 1-18.29223634-3.46069333l-101.84326171-40.53955079 19.28100584 59.82055661a49.43847655 49.43847655 0 0 1-13.84277341 49.43847659A214.06860352 214.06860352 0 0 0 215.36914066 386.96630858c0 131.50634765 132.98950195 238.78784183 296.63085934 238.78784182s296.63085934-107.28149414 296.63085934-238.7878418-132.98950195-238.78784183-296.63085934-238.78784181zM413.12304687 384m-49.43847654 0a49.43847655 49.43847655 0 1 1 98.87695308 0 49.43847655 49.43847655 0 1 1-98.87695308 0ZM610.87695313 384m-49.43847658 0a49.43847655 49.43847655 0 1 1 98.87695312 0 49.43847655 49.43847655 0 1 1-98.87695312 0Z"  horiz-adv-x="1024" />

    
    <glyph glyph-name="jiangjiatongzhi" unicode="&#58884;" d="M668.057 401.106c17.391 0 31.509 14.042 31.509 31.451 0 17.411-14.118 31.528-31.509 31.528H586.53l81.358 81.464c12.257 12.299 12.257 32.214 0 44.546-12.257 12.281-32.21 12.281-44.552 0L507.859 474.499l-115.56 115.597c-12.256 12.281-32.248 12.281-44.552 0-12.333-12.333-12.251-32.248 0-44.546l81.407-81.464h-76.186c-17.309 0-31.47-14.118-31.47-31.528 0-17.41 14.161-31.451 31.47-31.451h126.035v-63.008H352.925c-17.386 0-31.427-14.036-31.427-31.514 0-17.386 14.041-31.546 31.427-31.546h126.078v-73.476c0-17.428 14.032-31.547 31.509-31.547 17.348 0 31.542 14.119 31.542 31.547v73.476h126.002c17.386 0 31.504 14.16 31.504 31.546 0 17.478-14.118 31.514-31.504 31.514H542.055v63.008h126.002M510.426 857.326c-260.924 0-472.546-211.617-472.546-472.613 0-261.01 211.573-472.647 472.546-472.647h391.648c17.717 0 48.602 13.27 52.086 40.536 7.951 62.269-129.846 85.226-63.603 157.002 94.943 102.871 92.5 221.017 92.5 275.109 0.001 260.996-211.534 472.613-472.631 472.613m0-879.64c-224.742 0-406.961 182.143-406.961 406.965 0 224.747 182.219 406.971 406.961 406.971 224.866 0 407.008-182.224 407.008-406.971 0-60.052-13.624-141.895-89.396-253.663-26.121-38.55-62.889-70.184-9.022-109.063 0 0 75.979-45.915 1.987-44.24H510.426"  horiz-adv-x="1024" />

    
    <glyph glyph-name="leimupinleifenleileibie" unicode="&#58886;" d="M320 384H192c-70.4 0-128-57.6-128-128v-128c0-70.4 57.6-128 128-128h128c70.4 0 128 57.6 128 128V256c0 70.4-57.6 128-128 128z m64-256c0-35.2-28.8-64-64-64H192c-35.2 0-64 28.8-64 64V256c0 35.2 28.8 64 64 64h128c35.2 0 64-28.8 64-64v-128zM768 832H640c-70.4 0-128-57.6-128-128v-128c0-70.4 57.6-128 128-128h128c70.4 0 128 57.6 128 128V704c0 70.4-57.6 128-128 128z m64-256c0-35.2-28.8-64-64-64H640c-35.2 0-64 28.8-64 64V704c0 35.2 28.8 64 64 64h128c35.2 0 64-28.8 64-64v-128z m-64-192H640c-70.4 0-128-57.6-128-128v-128c0-70.4 57.6-128 128-128h128c70.4 0 128 57.6 128 128V256c0 70.4-57.6 128-128 128z m64-256c0-35.2-28.8-64-64-64H640c-35.2 0-64 28.8-64 64V256c0 35.2 28.8 64 64 64h128c35.2 0 64-28.8 64-64v-128zM320 832H192c-70.4 0-128-57.6-128-128v-128c0-70.4 57.6-128 128-128h128c70.4 0 128 57.6 128 128V704c0 70.4-57.6 128-128 128z m64-256c0-35.2-28.8-64-64-64H192c-35.2 0-64 28.8-64 64V704c0 35.2 28.8 64 64 64h128c35.2 0 64-28.8 64-64v-128z"  horiz-adv-x="1024" />

    
    <glyph glyph-name="tiaozhuanqianwangyoujiantouxiangyouxiayibuxianxing" unicode="&#58910;" d="M346.68 384.74L736.94-5.49a28.444 28.444 0 0 0-40.25-40.22L286.35 364.63a28.444 28.444 0 0 0 0 40.22L696.69 815.218a28.444 28.444 0 0 0 40.22-40.22l-390.23-390.23z"  horiz-adv-x="1024" />

    
    <glyph glyph-name="shaixuan" unicode="&#59013;" d="M103.424 844.8a25.6 25.6 0 0 1-20.4288-41.1136L409.088 375.808a128 128 0 0 0 26.1632-77.568v-200.192a25.6 25.6 0 0 1 7.4752-18.1248l146.1248-146.1248v364.4416c0 28.0064 9.216 55.296 26.1632 77.568l326.0416 427.8784A25.6 25.6 0 0 1 920.576 844.8H103.3728z m0 51.2h817.152a76.8 76.8 0 0 0 61.1328-123.392l-325.9904-427.8272a76.8 76.8 0 0 1-15.7184-46.592v-364.3904a51.2 51.2 0 0 0-87.3984-36.1984l-146.1248 146.1248a76.8 76.8 0 0 0-22.4768 54.272v200.192a76.8 76.8 0 0 1-15.7184 46.592L42.2912 772.6592A76.8 76.8 0 0 0 103.3728 896z"  horiz-adv-x="1024" />

    
    <glyph glyph-name="xiaoxi" unicode="&#58932;" d="M511.486468 447.933763a63.935808 63.935808 0 1 1 0-127.871617 63.935808 63.935808 0 0 1 0 127.871617zM275.17972 447.933763a63.935808 63.935808 0 1 1 0-127.871617 63.935808 63.935808 0 0 1 0 127.871617zM746.770243 447.933763a63.935808 63.935808 0 1 1 63.935808-63.935809 64.447295 64.447295 0 0 1-63.935808 63.935809zM511.486468 895.995908a511.486468 511.486468 0 0 1-460.337821-733.471594v-157.026346a80.814862 80.814862 0 0 1 80.303375-80.303375h157.026346A511.486468 511.486468 0 1 1 511.486468 895.995908z m0-940.112127a427.0912 427.0912 0 0 0-187.204048 42.964863l-16.879053 8.183783H131.963509v173.905399l-8.183784 16.879054A429.137146 429.137146 0 1 0 511.486468-45.139192v1.022973z"  horiz-adv-x="1026" />

    
    <glyph glyph-name="ziyuan" unicode="&#58938;" d="M1097.384479 537.892776A311.003251 311.003251 0 0 1 790.184655 852.114311a302.226113 302.226113 0 0 1-219.428446-96.255945A302.811256 302.811256 0 0 1 351.327763 852.114311 311.003251 311.003251 0 0 1 44.127938 537.892776v-19.602274a266.82499 266.82499 0 0 1 22.235416-100.059372l1.755428-3.803426c93.330232-221.476445 453.485455-476.013442 468.114018-487.716293a52.077685 52.077685 0 0 1 32.182839-10.825137 53.833112 53.833112 0 0 1 32.47541 11.117708c13.165707 9.947423 321.828388 228.205584 442.075176 434.468323a177.883327 177.883327 0 0 1 11.117708 19.602275 50.907399 50.907399 0 0 0 2.925712 5.558854v2.047999a285.842122 285.842122 0 0 1 17.554276 39.789691 241.078719 241.078719 0 0 1 19.017132 87.771379 33.645695 33.645695 0 0 1 0 5.558854v14.04342zM569.878495-127.999415a97.42623 97.42623 0 0 0-58.514252 19.602275l-4.68114 3.510855C390.824883-20.040619 112.589614 198.217542 29.499375 398.628856l-2.047999 5.558854a305.151826 305.151826 0 0 0-27.209127 114.102792v2.925712a143.652489 143.652489 0 0 0 0 16.676562A354.88894 354.88894 0 0 0 351.327763 896a345.52666 345.52666 0 0 0 219.428446-80.164526A344.941517 344.941517 0 0 0 790.184655 896a354.88894 354.88894 0 0 0 351.085514-358.107224v-19.602274a292.571261 292.571261 0 0 0-21.942845-105.033083 368.347218 368.347218 0 0 0-20.187417-43.885689l-2.047999-3.510856a15.798848 15.798848 0 0 1 0-2.34057l-1.462856-2.633141a239.615863 239.615863 0 0 0-13.458278-23.405701C974.50455 156.672422 731.670403-32.036041 633.65903-104.593714l-4.68114-3.218284a95.670802 95.670802 0 0 0-59.099395-20.187417zM109.37133 431.396837c77.531384-184.027323 363.080935-402.578056 448.804315-465.480877l6.143996-4.388569a9.654852 9.654852 0 0 1 11.410279 0l5.851426 4.388569C676.374434 35.54792 907.213159 215.479246 1006.687388 383.707721a160.621623 160.621623 0 0 1 9.362281 16.383991l3.510855 6.729139a21.942845 21.942845 0 0 0 2.047999 3.510855 302.811256 302.811256 0 0 1 14.335991 32.767981 204.799883 204.799883 0 0 1 17.554276 75.190815 58.514252 58.514252 0 0 0 0 10.239994 75.483385 75.483385 0 0 1 0 9.36228A267.117562 267.117562 0 0 1 790.184655 808.228622a260.095851 260.095851 0 0 1-187.83075-82.505096 43.885689 43.885689 0 0 0-31.890267-13.750849 43.885689 43.885689 0 0 0-31.890268 13.750849A260.095851 260.095851 0 0 1 351.327763 808.228622a267.117562 267.117562 0 0 1-263.314135-270.335846 49.444543 49.444543 0 0 1 0-10.239994 35.693694 35.693694 0 0 0 0-7.899424 222.939301 222.939301 0 0 1 19.017132-84.845666l-38.911978-20.479988z m950.856599-41.83769z"  horiz-adv-x="1141" />

    
    <glyph glyph-name="jiajian1" unicode="&#58885;" d="M512-128C229.205333-128 0 101.205333 0 384S229.205333 896 512 896s512-229.205333 512-512c-0.853333-282.453333-229.546667-511.146667-512-512z m0 953.685333C268.117333 825.685333 70.314667 627.8826670000001 70.314667 384S268.117333-57.51466700000003 512-57.51466700000003 953.685333 140.11733300000003 953.685333 384c-0.512 243.712-197.973333 441.173333-441.685333 441.685333zM778.752 358.4H245.418667c-17.749333 0-32.085333 14.336-32.085334 32.085333v4.266667c0 17.749333 14.336 32.085333 32.085334 32.085333h533.333333c17.749333 0 32.085333-14.336 32.085333-32.085333v-4.266667c-0.170667-17.749333-14.506667-32.085333-32.085333-32.085333z"  horiz-adv-x="1024" />

    
    <glyph glyph-name="jiajian" unicode="&#58887;" d="M779.093333 422.4H544.085333v228.693333c0 17.749333-14.336 32.085333-32.085333 32.085334s-32.085333-14.336-32.085333-32.085334v-235.008h-228.693334c-17.578667 3.242667-34.474667-8.192-37.888-25.770666-0.341333-2.048-0.512-4.096-0.512-6.144-1.024-16.725333 11.605333-31.061333 28.330667-32.085334h232.277333v-228.693333c0-17.749333 14.336-32.085333 32.085334-32.085333s32.085333 14.336 32.085333 32.085333v228.693333h228.693333c16.725333-1.024 31.061333 11.605333 32.085334 28.330667V384c-0.170667 19.114667-0.170667 38.4-19.285334 38.4zM512 896C229.205333 896 0 666.794667 0 384s229.205333-512 512-512 512 229.205333 512 512C1023.146667 666.4533329999999 794.453333 895.146667 512 896z m0-953.685333C268.117333-57.685333000000014 70.485333 140.11733300000003 70.485333 384S268.117333 825.514667 512 825.514667 953.685333 627.8826670000001 953.685333 384c-0.512-243.712-197.973333-441.173333-441.685333-441.685333z"  horiz-adv-x="1024" />

    
    <glyph glyph-name="gouwuche" unicode="&#58888;" d="M908.629 152.235H257.877c-19.2853 0-37.376 7.50933-50.8587 21.1627-13.4827 13.6533-20.992 31.5733-20.8213 50.8587l2.38933 479.232c0 19.1147-6.656 31.9147-39.7653 37.2053h-0.170666l-95.5733 16.384c-9.216 1.536-15.5307 10.4107-13.9947 19.6267 1.536 9.216 10.4107 15.5307 19.6267 13.9947l95.4027-16.384c45.3973-7.168 68.4373-31.0613 68.4373-70.9973L220.16 223.91499999999996c0-10.0693 3.75467-19.456 10.9227-26.4533 7.168-7.168 16.5547-11.0933 26.624-11.0933h650.752c9.38667 0 17.0667-7.68 17.0667-17.0667s-7.50933-17.0667-16.896-17.0667ZM859.989 250.197l-602.624 1.87733c-18.944 0.170667-36.6933 7.50933-50.0053 20.992-13.312 13.4827-20.48 31.232-20.48 50.176l1.87733 353.963L870.571 626.347c30.8907-1.19467 55.1253-26.2827 55.1253-57.1733V315.73299999999995c0-36.1813-29.5253-65.536-65.7067-65.536ZM257.707 286.20799999999997l602.453-1.87733c17.408 0 31.5733 14.1653 31.5733 31.4027V569.173c0 12.4587-9.89867 22.6987-22.3573 23.04h-0.682667l-645.632 48.128-1.536-317.44c0-9.728 3.75467-18.944 10.5813-25.9413 6.48533-6.82667 15.7013-10.752 25.6-10.752ZM324.096 95.91499999999996m-63.6587 0a63.6587 63.6587 0 1 1 127.317 0 63.6587 63.6587 0 1 1-127.317 0ZM324.096 15.188999999999965c-44.544 0-80.7253 36.1813-80.7253 80.7253s36.1813 80.7253 80.7253 80.7253c44.544 0 80.7253-36.1813 80.7253-80.7253s-36.1813-80.7253-80.7253-80.7253Zm0 127.317c-25.7707 0-46.592-20.8213-46.592-46.592s20.8213-46.592 46.592-46.592 46.592 20.8213 46.592 46.592-20.8213 46.592-46.592 46.592ZM812.715 95.91499999999996m-63.6587 0a63.6587 63.6587 0 1 1 127.317 0 63.6587 63.6587 0 1 1-127.317 0ZM812.715 15.188999999999965c-44.544 0-80.7253 36.1813-80.7253 80.7253s36.1813 80.7253 80.7253 80.7253 80.7253-36.1813 80.7253-80.7253-36.1813-80.7253-80.7253-80.7253Zm0 127.317c-25.7707 0-46.592-20.8213-46.592-46.592s20.8213-46.592 46.592-46.592 46.592 20.8213 46.592 46.592-20.8213 46.592-46.592 46.592ZM710.315 478.037H362.496c-9.38667 0-17.0667 7.68-17.0667 17.0667s7.68 17.0667 17.0667 17.0667h347.819c9.38667 0 17.0667-7.68 17.0667-17.0667s-7.68-17.0667-17.0667-17.0667ZM710.315 379.904H362.496c-9.38667 0-17.0667 7.68-17.0667 17.0667s7.68 17.0667 17.0667 17.0667h347.819c9.38667 0 17.0667-7.68 17.0667-17.0667s-7.68-17.0667-17.0667-17.0667Z"  horiz-adv-x="1024" />

    
    <glyph glyph-name="tiaozhuanqianwangyoujiantouxiangyouxiayibuxianxing1" unicode="&#58889;" d="M657.30078125 383.34960937000005L314.29882812 726.32519531a24.99960938 24.99960938 0 0 0 35.37597657 35.34960938L710.32519531 401.02441406a24.99960938 24.99960938 0 0 0-1e-8-35.34960937L349.67480468 4.999804690000019a24.99960938 24.99960938 0 0 0-35.34960937 35.34960937l342.97558594 342.97558594z"  horiz-adv-x="1024" />

    


  </font>
</defs>
</svg>
